<svg width="18" height="16" viewBox="0 0 18 16" fill="none" xmlns="http://www.w3.org/2000/svg">
<path d="M2.31006 1.75H4.8501L6.52979 0.0600586H11.6001L13.29 1.75H15.8198C16.2698 1.75 16.6898 1.92999 17.0098 2.23999C17.3298 2.55999 17.5098 2.98994 17.5098 3.43994V13.5601C17.5098 14.0101 17.3298 14.44 17.0098 14.76C16.6898 15.07 16.2698 15.25 15.8198 15.25H2.31006C1.87006 15.25 1.44012 15.07 1.12012 14.76C0.800117 14.44 0.620117 14.0101 0.620117 13.5601V3.43994C0.620117 2.98994 0.800117 2.55999 1.12012 2.23999C1.44012 1.92999 1.87006 1.75 2.31006 1.75ZM9.06982 4.28003C7.94982 4.28003 6.87008 4.72002 6.08008 5.52002C5.29008 6.31002 4.8501 7.38 4.8501 8.5C4.8501 9.62 5.29008 10.69 6.08008 11.48C6.87008 12.28 7.94982 12.72 9.06982 12.72C10.1798 12.72 11.2598 12.28 12.0498 11.48C12.8398 10.69 13.29 9.62 13.29 8.5C13.29 7.38 12.8398 6.31002 12.0498 5.52002C11.2598 4.72002 10.1798 4.28003 9.06982 4.28003ZM9.06982 5.96997C9.73982 5.96997 10.3799 6.22996 10.8599 6.70996C11.3299 7.17996 11.6001 7.83 11.6001 8.5C11.6001 9.17 11.3299 9.82004 10.8599 10.29C10.3799 10.77 9.73982 11.03 9.06982 11.03C8.38982 11.03 7.75002 10.77 7.27002 10.29C6.80002 9.82004 6.52979 9.17 6.52979 8.5C6.52979 7.83 6.80002 7.17996 7.27002 6.70996C7.75002 6.22996 8.38982 5.96997 9.06982 5.96997Z" fill="black"/>
</svg>
